<svg width="3498" height="800" viewBox="0 0 3498 800" fill="none" xmlns="http://www.w3.org/2000/svg">
<path d="M136 466H243V550H25V196H136V466ZM550.93 406.5C550.93 414.167 550.43 421.5 549.43 428.5H370.93C372.596 452.833 382.763 465 401.43 465C413.43 465 422.096 459.5 427.43 448.5H544.93C540.93 468.5 532.43 486.5 519.43 502.5C506.763 518.167 490.596 530.667 470.93 540C451.596 549 430.263 553.5 406.93 553.5C378.93 553.5 353.93 547.667 331.93 536C310.263 524.333 293.263 507.667 280.93 486C268.93 464 262.93 438.333 262.93 409C262.93 379.667 268.93 354.167 280.93 332.5C293.263 310.5 310.263 293.667 331.93 282C353.93 270.333 378.93 264.5 406.93 264.5C434.93 264.5 459.763 270.333 481.43 282C503.43 293.333 520.43 309.667 532.43 331C544.763 352.333 550.93 377.5 550.93 406.5ZM438.43 380C438.43 370.667 435.43 363.667 429.43 359C423.43 354 415.93 351.5 406.93 351.5C387.263 351.5 375.763 361 372.43 380H438.43ZM571.035 409C571.035 379.333 576.035 353.667 586.035 332C596.368 310 610.368 293.333 628.035 282C645.702 270.333 665.535 264.5 687.535 264.5C705.869 264.5 721.702 268.333 735.035 276C748.368 283.333 758.535 293.5 765.535 306.5V268H876.035V550H765.535V511.5C758.535 524.5 748.368 534.833 735.035 542.5C721.702 549.833 705.869 553.5 687.535 553.5C665.535 553.5 645.702 547.833 628.035 536.5C610.368 524.833 596.368 508.167 586.035 486.5C576.035 464.5 571.035 438.667 571.035 409ZM765.535 409C765.535 394 761.702 382.333 754.035 374C746.368 365.667 736.535 361.5 724.535 361.5C712.535 361.5 702.702 365.667 695.035 374C687.368 382.333 683.535 394 683.535 409C683.535 424 687.368 435.667 695.035 444C702.702 452.333 712.535 456.5 724.535 456.5C736.535 456.5 746.368 452.333 754.035 444C761.702 435.667 765.535 424 765.535 409ZM1036.88 320C1048.21 303.667 1062.05 290.667 1078.38 281C1094.71 271 1111.71 266 1129.38 266V384.5H1097.88C1076.88 384.5 1061.38 388.167 1051.38 395.5C1041.71 402.833 1036.88 415.833 1036.88 434.5V550H925.879V268H1036.88V320ZM1356.78 266C1389.11 266 1414.28 276.833 1432.28 298.5C1450.61 320.167 1459.78 349.5 1459.78 386.5V550H1349.28V400.5C1349.28 387.167 1345.61 376.667 1338.28 369C1331.28 361 1321.78 357 1309.78 357C1297.44 357 1287.78 361 1280.78 369C1273.78 376.667 1270.28 387.167 1270.28 400.5V550H1159.28V268H1270.28V311C1278.94 297.667 1290.44 286.833 1304.78 278.5C1319.44 270.167 1336.78 266 1356.78 266ZM2613.1 196V550H2502.6V373.5L2448.1 550H2353.1L2298.6 373.5V550H2187.6V196H2323.6L2401.6 408.5L2477.6 196H2613.1ZM2797.18 553.5C2768.85 553.5 2743.35 547.667 2720.68 536C2698.02 524.333 2680.18 507.667 2667.18 486C2654.52 464 2648.18 438.333 2648.18 409C2648.18 379.667 2654.52 354.167 2667.18 332.5C2680.18 310.5 2698.02 293.667 2720.68 282C2743.35 270.333 2768.85 264.5 2797.18 264.5C2825.52 264.5 2851.02 270.333 2873.68 282C2896.35 293.667 2914.02 310.5 2926.68 332.5C2939.68 354.167 2946.18 379.667 2946.18 409C2946.18 438.333 2939.68 464 2926.68 486C2914.02 507.667 2896.35 524.333 2873.68 536C2851.02 547.667 2825.52 553.5 2797.18 553.5ZM2797.18 457.5C2807.52 457.5 2816.18 453.5 2823.18 445.5C2830.18 437.167 2833.68 425 2833.68 409C2833.68 393 2830.18 381 2823.18 373C2816.18 364.667 2807.52 360.5 2797.18 360.5C2786.85 360.5 2778.18 364.667 2771.18 373C2764.18 381 2760.68 393 2760.68 409C2760.68 425 2764.02 437.167 2770.68 445.5C2777.68 453.5 2786.52 457.5 2797.18 457.5ZM3092.05 320C3103.39 303.667 3117.22 290.667 3133.55 281C3149.89 271 3166.89 266 3184.55 266V384.5H3153.05C3132.05 384.5 3116.55 388.167 3106.55 395.5C3096.89 402.833 3092.05 415.833 3092.05 434.5V550H2981.05V268H3092.05V320ZM3487.45 406.5C3487.45 414.167 3486.95 421.5 3485.95 428.5H3307.45C3309.12 452.833 3319.29 465 3337.95 465C3349.95 465 3358.62 459.5 3363.95 448.5H3481.45C3477.45 468.5 3468.95 486.5 3455.95 502.5C3443.29 518.167 3427.12 530.667 3407.45 540C3388.12 549 3366.79 553.5 3343.45 553.5C3315.45 553.5 3290.45 547.667 3268.45 536C3246.79 524.333 3229.79 507.667 3217.45 486C3205.45 464 3199.45 438.333 3199.45 409C3199.45 379.667 3205.45 354.167 3217.45 332.5C3229.79 310.5 3246.79 293.667 3268.45 282C3290.45 270.333 3315.45 264.5 3343.45 264.5C3371.45 264.5 3396.29 270.333 3417.95 282C3439.95 293.333 3456.95 309.667 3468.95 331C3481.29 352.333 3487.45 377.5 3487.45 406.5ZM3374.95 380C3374.95 370.667 3371.95 363.667 3365.95 359C3359.95 354 3352.45 351.5 3343.45 351.5C3323.79 351.5 3312.29 361 3308.95 380H3374.95Z" fill="black"/>
<path d="M2071.33 0H1571.33C1552.92 0 1538 14.9238 1538 33.3333V766.667C1538 785.076 1552.92 800 1571.33 800H2071.33C2089.74 800 2104.67 785.076 2104.67 766.667V33.3333C2104.67 14.9238 2089.74 0 2071.33 0Z" fill="#4B6EA4"/>
<path d="M1571.33 0H1604.67V800H1571.33C1562.49 800 1554.01 796.488 1547.76 790.237C1541.51 783.986 1538 775.507 1538 766.667V33.3333C1538 24.4928 1541.51 16.0143 1547.76 9.76311C1554.01 3.5119 1562.49 0 1571.33 0Z" fill="#445F96"/>
<path d="M2071.33 733.333H1571.33C1562.49 733.333 1554.01 736.845 1547.76 743.096C1541.51 749.348 1538 757.826 1538 766.667C1538 775.507 1541.51 783.986 1547.76 790.237C1554.01 796.488 1562.49 800 1571.33 800H2071.33C2080.17 800 2088.65 796.488 2094.9 790.237C2101.15 783.986 2104.67 775.507 2104.67 766.667V700C2104.64 708.832 2101.12 717.296 2094.87 723.541C2088.63 729.787 2080.17 733.307 2071.33 733.333Z" fill="#A09B8C"/>
<path d="M2071.33 733.333H1571.33C1562.49 733.333 1554.01 736.845 1547.76 743.096C1541.51 749.348 1538 757.826 1538 766.667C1538 775.507 1541.51 783.986 1547.76 790.237C1554.01 796.488 1562.49 800 1571.33 800H2071.33C2080.17 800 2088.65 796.488 2094.9 790.237C2101.15 783.986 2104.67 775.507 2104.67 766.667V700C2104.64 708.832 2101.12 717.296 2094.87 723.541C2088.63 729.787 2080.17 733.307 2071.33 733.333Z" fill="#F1F2F2"/>
<path d="M2104.67 733.333V766.666C2104.64 775.499 2101.12 783.962 2094.87 790.207C2088.63 796.453 2080.17 799.973 2071.33 800H1571.33C1565.49 799.994 1559.74 798.449 1554.68 795.521C1549.62 792.593 1545.41 788.384 1542.49 783.318C1539.57 778.252 1538.03 772.506 1538.03 766.658C1538.04 760.809 1539.58 755.064 1542.5 750C1545.42 755.062 1549.63 759.267 1554.69 762.192C1559.75 765.117 1565.49 766.66 1571.33 766.666H2071.33C2080.17 766.64 2088.63 763.12 2094.87 756.874C2101.12 750.629 2104.64 742.165 2104.67 733.333Z" fill="#4C5665"/>
<path d="M1988 100H1704.67C1695.46 100 1688 107.462 1688 116.667V250C1688 259.205 1695.46 266.667 1704.67 266.667H1988C1997.2 266.667 2004.67 259.205 2004.67 250V116.667C2004.67 107.462 1997.2 100 1988 100Z" fill="#445F96"/>
</svg>
